<?xml version="1.0" standalone="no"?><!DOCTYPE svg PUBLIC "-//W3C//DTD SVG 1.1//EN" "http://www.w3.org/Graphics/SVG/1.1/DTD/svg11.dtd"><svg t="1682334212798" class="icon" viewBox="0 0 1024 1024" version="1.1" xmlns="http://www.w3.org/2000/svg" p-id="834" xmlns:xlink="http://www.w3.org/1999/xlink" width="200" height="200"><path d="M889.594311 78.085689H661.936356V38.331733A38.445511 38.445511 0 0 0 623.616 0H400.327111a38.434133 38.434133 0 0 0-38.320355 38.320356v39.765333H134.371556a78.722844 78.722844 0 0 0-78.506667 78.506667v56.058311a23.210667 23.210667 0 0 0 23.210667 23.210666h865.848888a23.210667 23.210667 0 0 0 23.210667-23.210666v-56.069689a78.722844 78.722844 0 0 0-78.5408-78.495289zM126.782578 338.909867l54.328889 567.250489A130.275556 130.275556 0 0 0 310.727111 1024h402.454756a130.412089 130.412089 0 0 0 129.786311-117.839644l54.1696-567.250489z m338.284089 314.231466l-32.403911 36.829867-48.605867 55.478044a15.428267 15.428267 0 0 1-23.2448 0l-32.893156-37.4784L280.007111 653.141333c-8.840533-9.978311-1.6384-25.531733 11.616711-25.531733h32.244622a218.191644 218.191644 0 0 1 216.325689-189.189689c0.648533 0 1.137778 0.159289 1.797689 0.159289C473.577244 474.453333 426.450489 545.450667 424.982756 627.6096h28.444444a15.405511 15.405511 0 0 1 11.639467 25.531733z m267.264-9.978311h-32.233245a218.203022 218.203022 0 0 1-216.3712 189.189689c-0.648533 0-1.137778-0.159289-1.797689-0.159289C550.343111 796.342044 597.447111 725.321956 598.948978 643.163022h-28.444445a15.405511 15.405511 0 0 1-11.616711-25.543111l32.403911-36.818489 48.605867-55.478044a15.428267 15.428267 0 0 1 23.2448 0l32.893156 37.4784 47.945955 54.818133a15.371378 15.371378 0 0 1-11.650844 25.543111z" p-id="835"></path></svg>